<svg width="20" height="20" viewBox="0 0 20 20" fill="none" xmlns="http://www.w3.org/2000/svg">
    <path d="M10.6746 8.45947L12.176 9.59031C12.5187 9.84735 12.72 10.2499 12.72 10.6783L12.72 11.3583L7.28003 11.3583L7.28003 10.6783C7.28003 10.2499 7.48131 9.84735 7.82403 9.59031L9.32547 8.45947" stroke="#171A1F" stroke-width="1.632" stroke-miterlimit="10" stroke-linecap="round"/>
    <path d="M10.0001 15.4301C10.3756 15.4301 10.6801 15.1256 10.6801 14.7501C10.6801 14.3745 10.3756 14.0701 10.0001 14.0701C9.62451 14.0701 9.32007 14.3745 9.32007 14.7501C9.32007 15.1256 9.62451 15.4301 10.0001 15.4301Z" fill="#171A1F"/>
    <path d="M10.0001 8.65C9.24874 8.65 8.64014 8.0414 8.64014 7.29L8.64014 6.61C8.64014 5.8586 9.24874 5.25 10.0001 5.25C10.7515 5.25 11.3601 5.8586 11.3601 6.61V7.29C11.3601 8.0414 10.7515 8.65 10.0001 8.65Z" stroke="#171A1F" stroke-width="1.632" stroke-miterlimit="10" stroke-linecap="round"/>
    <path d="M14.0801 17.48L5.92006 17.48C5.16866 17.48 4.56006 16.8714 4.56006 16.12L4.56006 3.88002C4.56006 3.12862 5.16866 2.52002 5.92006 2.52002L14.0801 2.52002C14.8315 2.52002 15.4401 3.12862 15.4401 3.88002L15.4401 16.12C15.4401 16.8714 14.8315 17.48 14.0801 17.48Z" stroke="#171A1F" stroke-width="1.632" stroke-miterlimit="10" stroke-linecap="round"/>
</svg>
