<svg width="20" height="20" viewBox="0 0 20 20" fill="none" xmlns="http://www.w3.org/2000/svg">
    <path d="M5.92459 14.5696L7.42603 15.7004C7.76875 15.9575 7.97003 16.36 7.97003 16.7884L7.97003 17.4684L2.53003 17.4684L2.53003 16.7884C2.53003 16.36 2.73131 15.9575 3.07403 15.7004L4.57547 14.5696" stroke="#171A1F" stroke-width="1.632" stroke-miterlimit="10" stroke-linecap="round"/>
    <path d="M5.25014 14.7501C4.49874 14.7501 3.89014 14.1415 3.89014 13.3901V12.7101C3.89014 11.9587 4.49874 11.3501 5.25014 11.3501C6.00154 11.3501 6.61014 11.9587 6.61014 12.7101V13.3901C6.61014 14.1415 6.00154 14.7501 5.25014 14.7501Z" stroke="#171A1F" stroke-width="1.632" stroke-miterlimit="10" stroke-linecap="round"/>
    <path d="M10.6746 5.74951L12.176 6.88035C12.5187 7.13739 12.72 7.53995 12.72 7.96835L12.72 8.64835L7.28003 8.64835L7.28003 7.96835C7.28003 7.53995 7.48131 7.13739 7.82403 6.88035L9.32547 5.74951" stroke="#171A1F" stroke-width="1.632" stroke-miterlimit="10" stroke-linecap="round"/>
    <path d="M10.0001 5.93003C9.24874 5.93003 8.64014 5.32143 8.64014 4.57003L8.64014 3.89003C8.64014 3.13863 9.24874 2.53003 10.0001 2.53003C10.7515 2.53003 11.3601 3.13863 11.3601 3.89003V4.57003C11.3601 5.32143 10.7515 5.93003 10.0001 5.93003Z" stroke="#171A1F" stroke-width="1.632" stroke-miterlimit="10" stroke-linecap="round"/>
    <path d="M15.4246 14.5696L16.926 15.7004C17.2687 15.9575 17.47 16.36 17.47 16.7884V17.4684L12.03 17.4684V16.7884C12.03 16.36 12.2313 15.9575 12.574 15.7004L14.0755 14.5696" stroke="#171A1F" stroke-width="1.632" stroke-miterlimit="10" stroke-linecap="round"/>
    <path d="M14.7501 14.7501C13.9987 14.7501 13.3901 14.1415 13.3901 13.3901L13.3901 12.7101C13.3901 11.9587 13.9987 11.3501 14.7501 11.3501C15.5015 11.3501 16.1101 11.9587 16.1101 12.7101V13.3901C16.1101 14.1415 15.5015 14.7501 14.7501 14.7501Z" stroke="#171A1F" stroke-width="1.632" stroke-miterlimit="10" stroke-linecap="round"/>
</svg>
