<svg width="24" height="24" viewBox="0 0 24 24" fill="none" xmlns="http://www.w3.org/2000/svg">
    <path d="M10.3001 19.579C10.3001 19.0595 10.0722 18.565 9.66538 18.2425C9.0436 17.7489 7.96516 17.14 6.43006 17.14C4.89496 17.14 3.81652 17.7489 3.19474 18.2425C2.78796 18.565 2.56006 19.0595 2.56006 19.579L2.56006 20.58H10.3001V19.579Z" stroke="#6355D8" stroke-width="2.064" stroke-miterlimit="10" stroke-linecap="round"/>
    <path d="M6.43027 14.58C7.61769 14.58 8.58027 13.6174 8.58027 12.43C8.58027 11.2426 7.61769 10.28 6.43027 10.28C5.24286 10.28 4.28027 11.2426 4.28027 12.43C4.28027 13.6174 5.24286 14.58 6.43027 14.58Z" stroke="#6355D8" stroke-width="2.064" stroke-miterlimit="10" stroke-linecap="square"/>
    <path d="M21.4402 19.579C21.4402 19.0595 21.2123 18.565 20.8055 18.2425C20.1837 17.7489 19.1053 17.14 17.5702 17.14C16.0351 17.14 14.9567 17.7489 14.3349 18.2425C13.9281 18.565 13.7002 19.0595 13.7002 19.579V20.58H21.4402V19.579Z" stroke="#6355D8" stroke-width="2.064" stroke-miterlimit="10" stroke-linecap="round"/>
    <path d="M17.5699 14.58C18.7573 14.58 19.7199 13.6174 19.7199 12.43C19.7199 11.2426 18.7573 10.28 17.5699 10.28C16.3825 10.28 15.4199 11.2426 15.4199 12.43C15.4199 13.6174 16.3825 14.58 17.5699 14.58Z" stroke="#6355D8" stroke-width="2.064" stroke-miterlimit="10" stroke-linecap="square"/>
    <path d="M12 3.42004L12 8.58004" stroke="#6355D8" stroke-width="2.064" stroke-miterlimit="10" stroke-linecap="square"/>
    <path d="M9.41992 6L14.5799 6" stroke="#6355D8" stroke-width="2.064" stroke-miterlimit="10" stroke-linecap="square"/>
</svg>
