<svg width="16" height="16" viewBox="0 0 16 16" fill="none" xmlns="http://www.w3.org/2000/svg">
    <path d="M9.88558 9.24658L8.66521 10.4504C8.02881 10.0667 7.43761 9.61261 6.90277 9.09667C6.38763 8.56094 5.9336 7.96965 5.54902 7.33366L6.75172 6.11329C6.90071 5.962 6.94349 5.73568 6.86002 5.54044L5.60602 2.61748C5.50363 2.37927 5.24224 2.25197 4.99156 2.31823L2.69218 2.92642C2.45571 2.98773 2.293 3.20435 2.30002 3.44854C2.44633 6.12285 3.55827 8.65318 5.42932 10.5696C7.34605 12.4412 9.87706 13.5534 12.552 13.6994C12.7966 13.7076 13.0139 13.5448 13.0747 13.3078L13.6824 11.0073C13.749 10.7568 13.6218 10.4953 13.3837 10.3929L10.4601 9.13942C10.2647 9.05472 10.0374 9.09712 9.88558 9.24658Z" stroke="#2C35E0" stroke-width="1.368" stroke-miterlimit="10" stroke-linecap="round"/>
</svg>
