<svg width="24" height="24" viewBox="0 0 24 24" fill="none" xmlns="http://www.w3.org/2000/svg">
    <path d="M19 3L5 3C3.9 3 3 3.9 3 5L3 19C3 20.1 3.9 21 5 21L19 21C20.1 21 21 20.1 21 19L21 5C21 3.9 20.1 3 19 3ZM19 19L5 19L5 5L19 5L19 19Z" fill="#6F7787"/>
    <path d="M6.25 7.72L11.25 7.72V9.22L6.25 9.22L6.25 7.72ZM13 15.75L18 15.75L18 17.25L13 17.25V15.75ZM13 13.25L18 13.25V14.75L13 14.75V13.25ZM8 18H9.5V16H11.5L11.5 14.5L9.5 14.5V12.5H8V14.5H6L6 16H8V18ZM14.09 10.95L15.5 9.54L16.91 10.95L17.97 9.89L16.56 8.47L17.97 7.06L16.91 6L15.5 7.41L14.09 6L13.03 7.06L14.44 8.47L13.03 9.89L14.09 10.95Z" fill="#6F7787"/>
</svg>
