<svg width="20" height="20" viewBox="0 0 20 20" fill="none" xmlns="http://www.w3.org/2000/svg">
<path d="M6.60002 10.69L2.52002 10.69L2.52002 2.53003L14.76 2.53003L14.76 8.08563" stroke="#171A1F" stroke-width="1.632" stroke-miterlimit="10"/>
<path d="M9.31006 10L9.31006 12.72C9.31006 13.8468 11.1365 14.76 13.3901 14.76C15.6436 14.76 17.4701 13.8468 17.4701 12.72V10" stroke="#171A1F" stroke-width="1.632" stroke-miterlimit="10" stroke-linecap="round"/>
<path d="M9.31006 12.71L9.31006 15.43C9.31006 16.5567 11.1365 17.47 13.3901 17.47C15.6436 17.47 17.4701 16.5567 17.4701 15.43V12.71" stroke="#171A1F" stroke-width="1.632" stroke-miterlimit="10" stroke-linecap="round"/>
<path d="M13.3901 12.04C15.6434 12.04 17.4701 11.1266 17.4701 9.99996C17.4701 8.8733 15.6434 7.95996 13.3901 7.95996C11.1367 7.95996 9.31006 8.8733 9.31006 9.99996C9.31006 11.1266 11.1367 12.04 13.3901 12.04Z" stroke="#171A1F" stroke-width="1.632" stroke-miterlimit="10" stroke-linecap="square"/>
<path d="M8.63996 7.28993C9.01551 7.28993 9.31996 6.98549 9.31996 6.60993C9.31996 6.23438 9.01551 5.92993 8.63996 5.92993C8.26441 5.92993 7.95996 6.23438 7.95996 6.60993C7.95996 6.98549 8.26441 7.28993 8.63996 7.28993Z" stroke="#171A1F" stroke-width="1.632" stroke-miterlimit="10" stroke-linecap="square"/>
<path d="M8.63996 7.28993C9.01551 7.28993 9.31996 6.98549 9.31996 6.60993C9.31996 6.23438 9.01551 5.92993 8.63996 5.92993C8.26441 5.92993 7.95996 6.23438 7.95996 6.60993C7.95996 6.98549 8.26441 7.28993 8.63996 7.28993Z" fill="#171A1F"/>
</svg>
