<svg width="14" height="12" viewBox="0 0 14 12" fill="none" xmlns="http://www.w3.org/2000/svg">
    <path d="M7 0.85498L7 2.56498" stroke="#3D2DC7" stroke-width="1.368" stroke-miterlimit="10"/>
    <path d="M11.4445 2.6955L10.2355 3.90447" stroke="#3D2DC7" stroke-width="1.368" stroke-miterlimit="10"/>
    <path d="M13.285 7.13995L11.575 7.13995" stroke="#3D2DC7" stroke-width="1.368" stroke-miterlimit="10"/>
    <path d="M4.14801 4.28796L6.19203 6.33198" stroke="#3D2DC7" stroke-width="1.368" stroke-miterlimit="10"/>
    <path d="M0.715027 7.13995L2.42503 7.13995" stroke="#3D2DC7" stroke-width="1.368" stroke-miterlimit="10"/>
    <path d="M7.00005 8.28C7.62965 8.28 8.14005 7.7696 8.14005 7.14C8.14005 6.5104 7.62965 6 7.00005 6C6.37044 6 5.86005 6.5104 5.86005 7.14C5.86005 7.7696 6.37044 8.28 7.00005 8.28Z" stroke="#3D2DC7" stroke-width="1.368" stroke-miterlimit="10"/>
    <path d="M11.8365 11.13C12.732 10.0459 13.27 8.65562 13.27 7.14C13.27 3.67725 10.4628 0.869995 7.00004 0.869995C3.53729 0.869995 0.730042 3.67725 0.730042 7.14C0.730042 8.65562 1.26812 10.0459 2.16359 11.13L11.8365 11.13Z" stroke="#3D2DC7" stroke-width="1.368" stroke-miterlimit="10" stroke-linecap="round"/>
</svg>
