<svg width="20" height="20" viewBox="0 0 20 20" fill="none" xmlns="http://www.w3.org/2000/svg">
    <path d="M9.20996 13.7437L9.20996 2.68368C9.20996 2.24738 9.56364 1.89368 9.99996 1.89368C10.4363 1.89368 10.79 2.24738 10.79 2.68368L10.79 13.7437C10.79 14.18 10.4363 14.5337 9.99996 14.5337C9.56364 14.5337 9.20996 14.18 9.20996 13.7437Z" fill="white"/>
    <path d="M14.181 8.44516C14.4895 8.13661 14.9896 8.13661 15.2981 8.44516C15.6066 8.75365 15.6066 9.25372 15.2981 9.56222L10.5581 14.3022C10.2496 14.6107 9.7495 14.6107 9.441 14.3022L4.70099 9.56222L4.64698 9.50202C4.39391 9.19179 4.41175 8.73438 4.70099 8.44516C4.99021 8.15589 5.44763 8.13804 5.75792 8.39112L5.8181 8.44516L9.99953 12.6265L14.181 8.44516Z" fill="white"/>
    <path d="M15.5297 16.1337C15.966 16.1337 16.3197 16.4874 16.3197 16.9237C16.3197 17.36 15.966 17.7137 15.5297 17.7137L4.46969 17.7137C4.03339 17.7137 3.67969 17.36 3.67969 16.9237C3.67969 16.4874 4.03339 16.1337 4.46969 16.1337L15.5297 16.1337Z" fill="white"/>
</svg>
