<svg width="20" height="20" viewBox="0 0 20 20" fill="none" xmlns="http://www.w3.org/2000/svg">
    <path d="M11.665 11.8644V13.5991C10.1406 13.0601 8.44946 13.2948 7.1294 14.2284C5.80934 15.162 5.02468 16.6784 5.02499 18.2952L3.36499 18.2944C3.36447 16.2404 4.31453 14.3019 5.93817 13.0439C7.56181 11.7859 9.67625 11.3509 11.665 11.8644ZM10.005 10.8252C7.25354 10.8252 5.02499 8.59668 5.02499 5.84523C5.02499 3.09378 7.25354 0.865234 10.005 0.865234C12.7564 0.865234 14.985 3.09378 14.985 5.84523C14.985 8.59668 12.7564 10.8252 10.005 10.8252ZM10.005 9.16523C11.8393 9.16523 13.325 7.67953 13.325 5.84523C13.325 4.01093 11.8393 2.52523 10.005 2.52523C8.17069 2.52523 6.68499 4.01093 6.68499 5.84523C6.68499 7.67953 8.17069 9.16523 10.005 9.16523ZM16.1619 14.1452H19.1383V15.8052H16.1619L17.68 17.3225L16.5064 18.4969L12.9847 14.9752L16.5064 11.4535L17.68 12.628L16.1619 14.1452Z" fill="#6355D8"/>
</svg>
