<svg width="12" height="12" viewBox="0 0 12 12" fill="none" xmlns="http://www.w3.org/2000/svg">
    <path d="M5.57508 6.42004C4.36076 6.42004 3.28361 6.69438 2.57583 6.93303C2.05338 7.10976 1.70508 7.60211 1.70508 8.1538L1.70508 9.86004L5.57508 9.86004" stroke="#379AE6" stroke-width="1.032" stroke-miterlimit="10" stroke-linecap="round"/>
    <path d="M5.56992 6.44003C4.38269 6.44003 3.41992 5.04726 3.41992 3.86003L3.41992 3.43003C3.41992 2.2428 4.38269 1.28003 5.56992 1.28003C6.75715 1.28003 7.71992 2.2428 7.71992 3.43003V3.86003C7.71992 5.04726 6.75715 6.44003 5.56992 6.44003Z" stroke="#379AE6" stroke-width="1.032" stroke-miterlimit="10" stroke-linecap="round"/>
    <path d="M8.08398 9.21649L9.4961 10.0636" stroke="#379AE6" stroke-width="1.032" stroke-miterlimit="10"/>
    <path d="M8.08398 8.78356L9.4961 7.93646" stroke="#379AE6" stroke-width="1.032" stroke-miterlimit="10"/>
    <path d="M7.71027 9.43001C7.94776 9.43001 8.14027 9.23749 8.14027 9.00001C8.14027 8.76252 7.94776 8.57001 7.71027 8.57001C7.47279 8.57001 7.28027 8.76252 7.28027 9.00001C7.28027 9.23749 7.47279 9.43001 7.71027 9.43001Z" stroke="#379AE6" stroke-width="1.032" stroke-miterlimit="10" stroke-linecap="square"/>
    <path d="M9.85969 8.14003C10.0972 8.14003 10.2897 7.94751 10.2897 7.71003C10.2897 7.47255 10.0972 7.28003 9.85969 7.28003C9.62221 7.28003 9.42969 7.47255 9.42969 7.71003C9.42969 7.94751 9.62221 8.14003 9.85969 8.14003Z" stroke="#379AE6" stroke-width="1.032" stroke-miterlimit="10" stroke-linecap="square"/>
    <path d="M9.85969 10.72C10.0972 10.72 10.2897 10.5275 10.2897 10.29C10.2897 10.0526 10.0972 9.86005 9.85969 9.86005C9.62221 9.86005 9.42969 10.0526 9.42969 10.29C9.42969 10.5275 9.62221 10.72 9.85969 10.72Z" stroke="#379AE6" stroke-width="1.032" stroke-miterlimit="10" stroke-linecap="square"/>
    <path d="M7.71027 9.43001C7.94776 9.43001 8.14027 9.23749 8.14027 9.00001C8.14027 8.76252 7.94776 8.57001 7.71027 8.57001C7.47279 8.57001 7.28027 8.76252 7.28027 9.00001C7.28027 9.23749 7.47279 9.43001 7.71027 9.43001Z" fill="#379AE6"/>
    <path d="M9.85969 8.14003C10.0972 8.14003 10.2897 7.94751 10.2897 7.71003C10.2897 7.47255 10.0972 7.28003 9.85969 7.28003C9.62221 7.28003 9.42969 7.47255 9.42969 7.71003C9.42969 7.94751 9.62221 8.14003 9.85969 8.14003Z" fill="#379AE6"/>
    <path d="M9.85969 10.72C10.0972 10.72 10.2897 10.5275 10.2897 10.29C10.2897 10.0526 10.0972 9.86005 9.85969 9.86005C9.62221 9.86005 9.42969 10.0526 9.42969 10.29C9.42969 10.5275 9.62221 10.72 9.85969 10.72Z" fill="#379AE6"/>
</svg>
