<svg width="12" height="12" viewBox="0 0 12 12" fill="none" xmlns="http://www.w3.org/2000/svg">
    <path d="M3.5 1.5L2 1.5L2 3L1 3L1 0.5L3.5 0.5L3.5 1.5ZM11 3L11 0.5L8.5 0.5V1.5L10 1.5L10 3L11 3ZM3.5 10.5L2 10.5L2 9H1L1 11.5L3.5 11.5L3.5 10.5ZM10 9L10 10.5H8.5V11.5L11 11.5L11 9L10 9ZM8.5 3L3.5 3L3.5 9L8.5 9L8.5 3ZM9.5 9C9.5 9.55 9.05 10 8.5 10L3.5 10C2.95 10 2.5 9.55 2.5 9L2.5 3C2.5 2.45 2.95 2 3.5 2L8.5 2C9.05 2 9.5 2.45 9.5 3L9.5 9ZM7.5 4L4.5 4V5L7.5 5V4ZM7.5 5.5L4.5 5.5L4.5 6.5L7.5 6.5V5.5ZM7.5 7L4.5 7V8L7.5 8V7Z" fill="#379AE6"/>
</svg>
