<svg width="16" height="16" viewBox="0 0 16 16" fill="none" xmlns="http://www.w3.org/2000/svg">
    <path d="M11.9901 7.44L4.01012 7.44C3.38051 7.44 2.87012 7.9504 2.87012 8.58L2.87012 13.14C2.87012 13.7696 3.38051 14.28 4.01012 14.28L11.9901 14.28C12.6197 14.28 13.1301 13.7696 13.1301 13.14L13.1301 8.58C13.1301 7.9504 12.6197 7.44 11.9901 7.44Z" stroke="#171A1F" stroke-width="1.368" stroke-miterlimit="10" stroke-linecap="square"/>
    <path d="M8.00035 12C8.62996 12 9.14035 11.4896 9.14035 10.86C9.14035 10.2304 8.62996 9.71997 8.00035 9.71997C7.37075 9.71997 6.86035 10.2304 6.86035 10.86C6.86035 11.4896 7.37075 12 8.00035 12Z" stroke="#171A1F" stroke-width="1.368" stroke-miterlimit="10" stroke-linecap="square"/>
    <path d="M10.8499 5.13999V4.56999C10.8654 3.01181 9.61507 1.73597 8.0569 1.71999H7.9999C6.44173 1.70449 5.16588 2.95482 5.1499 4.51299V5.13999" stroke="#171A1F" stroke-width="1.368" stroke-miterlimit="10" stroke-linecap="round"/>
</svg>
