<svg width="18" height="16" viewBox="0 0 18 16" fill="none" xmlns="http://www.w3.org/2000/svg">
    <path d="M12.55 1.60999L5.44995 1.60999L5.44995 14.39L12.55 14.39L12.55 1.60999Z" stroke="#565D6D" stroke-width="1.704" stroke-miterlimit="10"/>
    <path d="M1.8599 4.42C2.25202 4.42 2.5699 4.10212 2.5699 3.71C2.5699 3.31788 2.25202 3 1.8599 3C1.46778 3 1.1499 3.31788 1.1499 3.71C1.1499 4.10212 1.46778 4.42 1.8599 4.42Z" fill="#565D6D"/>
    <path d="M1.8599 8.70998C2.25202 8.70998 2.5699 8.3921 2.5699 7.99998C2.5699 7.60786 2.25202 7.28998 1.8599 7.28998C1.46778 7.28998 1.1499 7.60786 1.1499 7.99998C1.1499 8.3921 1.46778 8.70998 1.8599 8.70998Z" fill="#565D6D"/>
    <path d="M1.8599 13C2.25202 13 2.5699 12.6821 2.5699 12.29C2.5699 11.8979 2.25202 11.58 1.8599 11.58C1.46778 11.58 1.1499 11.8979 1.1499 12.29C1.1499 12.6821 1.46778 13 1.8599 13Z" fill="#565D6D"/>
    <path d="M16.1399 4.42C16.5321 4.42 16.8499 4.10212 16.8499 3.71C16.8499 3.31788 16.5321 3 16.1399 3C15.7478 3 15.4299 3.31788 15.4299 3.71C15.4299 4.10212 15.7478 4.42 16.1399 4.42Z" fill="#565D6D"/>
    <path d="M16.1399 8.70998C16.5321 8.70998 16.8499 8.3921 16.8499 7.99998C16.8499 7.60786 16.5321 7.28998 16.1399 7.28998C15.7478 7.28998 15.4299 7.60786 15.4299 7.99998C15.4299 8.3921 15.7478 8.70998 16.1399 8.70998Z" fill="#565D6D"/>
    <path d="M16.1399 13C16.5321 13 16.8499 12.6821 16.8499 12.29C16.8499 11.8979 16.5321 11.58 16.1399 11.58C15.7478 11.58 15.4299 11.8979 15.4299 12.29C15.4299 12.6821 15.7478 13 16.1399 13Z" fill="#565D6D"/>
    <path d="M1.8599 4.42C2.25202 4.42 2.5699 4.10212 2.5699 3.71C2.5699 3.31788 2.25202 3 1.8599 3C1.46778 3 1.1499 3.31788 1.1499 3.71C1.1499 4.10212 1.46778 4.42 1.8599 4.42Z" stroke="#565D6D" stroke-width="1.704" stroke-miterlimit="10"/>
    <path d="M1.8599 8.70998C2.25202 8.70998 2.5699 8.3921 2.5699 7.99998C2.5699 7.60786 2.25202 7.28998 1.8599 7.28998C1.46778 7.28998 1.1499 7.60786 1.1499 7.99998C1.1499 8.3921 1.46778 8.70998 1.8599 8.70998Z" stroke="#565D6D" stroke-width="1.704" stroke-miterlimit="10"/>
    <path d="M1.8599 13C2.25202 13 2.5699 12.6821 2.5699 12.29C2.5699 11.8979 2.25202 11.58 1.8599 11.58C1.46778 11.58 1.1499 11.8979 1.1499 12.29C1.1499 12.6821 1.46778 13 1.8599 13Z" stroke="#565D6D" stroke-width="1.704" stroke-miterlimit="10"/>
    <path d="M16.1399 4.42C16.5321 4.42 16.8499 4.10212 16.8499 3.71C16.8499 3.31788 16.5321 3 16.1399 3C15.7478 3 15.4299 3.31788 15.4299 3.71C15.4299 4.10212 15.7478 4.42 16.1399 4.42Z" stroke="#565D6D" stroke-width="1.704" stroke-miterlimit="10"/>
    <path d="M16.1399 8.70998C16.5321 8.70998 16.8499 8.3921 16.8499 7.99998C16.8499 7.60786 16.5321 7.28998 16.1399 7.28998C15.7478 7.28998 15.4299 7.60786 15.4299 7.99998C15.4299 8.3921 15.7478 8.70998 16.1399 8.70998Z" stroke="#565D6D" stroke-width="1.704" stroke-miterlimit="10"/>
    <path d="M16.1399 13C16.5321 13 16.8499 12.6821 16.8499 12.29C16.8499 11.8979 16.5321 11.58 16.1399 11.58C15.7478 11.58 15.4299 11.8979 15.4299 12.29C15.4299 12.6821 15.7478 13 16.1399 13Z" stroke="#565D6D" stroke-width="1.704" stroke-miterlimit="10"/>
</svg>
