<svg width="22" height="22" viewBox="0 0 22 22" fill="none" xmlns="http://www.w3.org/2000/svg">
    <path d="M20.4499 1.56006L10.1299 1.56006L10.1299 10.1601L14.4299 6.72006L20.4499 6.72006V1.56006Z" stroke="#6355D8" stroke-width="2.064" stroke-miterlimit="10" stroke-linecap="square"/>
    <path d="M9.30006 19.4291C9.30006 18.9096 9.07216 18.4151 8.66538 18.0926C8.0436 17.599 6.96516 16.9901 5.43006 16.9901C3.89496 16.9901 2.81652 17.599 2.19474 18.0926C1.78796 18.4151 1.56006 18.9096 1.56006 19.4291L1.56006 20.4301H9.30006V19.4291Z" stroke="#6355D8" stroke-width="2.064" stroke-miterlimit="10" stroke-linecap="round"/>
    <path d="M5.43027 14.44C6.61769 14.44 7.58027 13.4774 7.58027 12.29C7.58027 11.1026 6.61769 10.14 5.43027 10.14C4.24286 10.14 3.28027 11.1026 3.28027 12.29C3.28027 13.4774 4.24286 14.44 5.43027 14.44Z" stroke="#6355D8" stroke-width="2.064" stroke-miterlimit="10" stroke-linecap="square"/>
    <path d="M20.4402 19.4291C20.4402 18.9096 20.2123 18.4151 19.8055 18.0926C19.1837 17.599 18.1053 16.9901 16.5702 16.9901C15.0351 16.9901 13.9567 17.599 13.3349 18.0926C12.9281 18.4151 12.7002 18.9096 12.7002 19.4291V20.4301H20.4402V19.4291Z" stroke="#6355D8" stroke-width="2.064" stroke-miterlimit="10" stroke-linecap="round"/>
    <path d="M16.5699 14.44C17.7573 14.44 18.7199 13.4774 18.7199 12.29C18.7199 11.1026 17.7573 10.14 16.5699 10.14C15.3825 10.14 14.4199 11.1026 14.4199 12.29C14.4199 13.4774 15.3825 14.44 16.5699 14.44Z" stroke="#6355D8" stroke-width="2.064" stroke-miterlimit="10" stroke-linecap="square"/>
</svg>
