<svg width="20" height="20" viewBox="0 0 20 20" fill="none" xmlns="http://www.w3.org/2000/svg">
    <path d="M9.99995 4.09605C11.88 4.09605 12.1056 4.10325 12.8486 4.13781C13.2958 4.1432 13.7387 4.22714 14.158 4.38597C14.4642 4.50138 14.741 4.68541 14.9683 4.92453C15.2025 5.15664 15.3827 5.43942 15.4957 5.75205C15.6512 6.18027 15.7334 6.63263 15.7387 7.08933C15.7725 7.84965 15.781 8.08005 15.781 10C15.781 11.92 15.7739 12.1504 15.7401 12.9093C15.7348 13.366 15.6526 13.8184 15.4971 14.2466C15.2598 14.8742 14.774 15.3703 14.1595 15.6127C13.7402 15.7715 13.2972 15.8555 12.85 15.8608C12.107 15.8954 11.8837 15.9026 10.0014 15.9026C8.11901 15.9026 7.89576 15.8954 7.15269 15.8608C6.70551 15.8555 6.26257 15.7715 5.84327 15.6127C5.53716 15.4973 5.26027 15.3132 5.03299 15.0741C4.79885 14.842 4.61865 14.5592 4.50565 14.2466C4.35013 13.8184 4.26794 13.366 4.26266 12.9093C4.22741 12.1504 4.21895 11.9224 4.21895 10C4.21895 8.07765 4.226 7.84965 4.25984 7.09077C4.26512 6.63407 4.34731 6.18171 4.50283 5.75349C4.61624 5.44072 4.79693 5.15794 5.03158 4.92597C5.25886 4.68685 5.53575 4.50282 5.84186 4.38741C6.26116 4.22858 6.7041 4.14464 7.15128 4.13925C7.89435 4.10469 8.11995 4.09605 9.99995 4.09605ZM9.99995 2.80005C8.08517 2.80005 7.845 2.80821 7.09347 2.84325C6.50843 2.85591 5.92969 2.96951 5.38173 3.17925C4.91162 3.35994 4.48565 3.64297 4.13341 4.00869C3.77481 4.36828 3.49718 4.80332 3.31984 5.28357C3.11447 5.84318 3.00324 6.43423 2.99084 7.03173C2.95794 7.79925 2.94995 8.04453 2.94995 10C2.94995 11.9556 2.95794 12.2008 2.99225 12.9684C3.00465 13.5659 3.11588 14.1569 3.32125 14.7165C3.49859 15.1968 3.77622 15.6318 4.13482 15.9914C4.48693 16.3576 4.9129 16.6412 5.38314 16.8223C5.9311 17.032 6.50984 17.1456 7.09488 17.1583C7.84688 17.1933 8.08658 17.2015 10.0014 17.2015C11.9161 17.2015 12.1563 17.1933 12.9078 17.1583C13.4929 17.1456 14.0716 17.032 14.6196 16.8223C15.5662 16.4476 16.3146 15.6832 16.6815 14.7165C16.8868 14.1569 16.9981 13.5659 17.0105 12.9684C17.0448 12.2004 17.0528 11.9556 17.0528 10C17.0528 8.04453 17.0448 7.79925 17.0105 7.03173C16.9981 6.43423 16.8868 5.84318 16.6815 5.28357C16.5041 4.80332 16.2265 4.36828 15.8679 4.00869C15.5158 3.64245 15.0898 3.35892 14.6196 3.17781C14.0716 2.96807 13.4929 2.85447 12.9078 2.84181C12.1549 2.80821 11.9147 2.80005 9.99995 2.80005Z" fill="#171A1F"/>
    <path d="M9.99986 6.30396C8.00114 6.30396 6.38086 7.95871 6.38086 9.99995C6.38086 12.0412 8.00114 13.696 9.99986 13.696C11.9986 13.696 13.6189 12.0412 13.6189 9.99995C13.6189 7.95871 11.9986 6.30396 9.99986 6.30396ZM9.99986 12.4C8.70199 12.4 7.64986 11.3254 7.64986 9.99995C7.64986 8.67447 8.70199 7.59995 9.99986 7.59995C11.2977 7.59995 12.3499 8.67447 12.3499 9.99995C12.3499 11.3254 11.2977 12.4 9.99986 12.4Z" fill="#171A1F"/>
    <path d="M13.7999 7.06394C14.2671 7.06394 14.6459 6.67711 14.6459 6.19994C14.6459 5.72276 14.2671 5.33594 13.7999 5.33594C13.3326 5.33594 12.9539 5.72276 12.9539 6.19994C12.9539 6.67711 13.3326 7.06394 13.7999 7.06394Z" fill="#171A1F"/>
</svg>
