<svg width="20" height="22" viewBox="0 0 20 22" fill="none" xmlns="http://www.w3.org/2000/svg">
    <path d="M16.02 10.14V7.55998C16.02 4.23522 13.3248 1.53998 10 1.53998C6.67527 1.53998 3.98002 4.23522 3.98002 7.55998L3.98002 10.14C3.98002 12.978 1.40002 13.666 1.40002 15.3C1.40002 16.762 4.75402 17.88 10 17.88C15.246 17.88 18.6 16.762 18.6 15.3C18.6 13.666 16.02 12.978 16.02 10.14Z" stroke="#323743" stroke-width="2.064" stroke-miterlimit="10" stroke-linecap="round"/>
    <path d="M9.99998 19.563C9.13052 19.563 8.31352 19.5337 7.54468 19.477C7.88108 20.5501 8.87539 21.2804 9.99998 21.2804C11.1246 21.2804 12.1189 20.5501 12.4553 19.477C11.6864 19.5337 10.8694 19.563 9.99998 19.563Z" fill="#323743"/>
</svg>
