<svg width="24" height="24" viewBox="0 0 24 24" fill="none" xmlns="http://www.w3.org/2000/svg">
    <path d="M21.1779 13.1454C20.6348 12.7275 19.928 12.5868 19.2663 12.7647L15.5007 13.6305C15.6782 12.8807 15.5029 12.0909 15.0249 11.4866C14.5469 10.8823 13.8187 10.5299 13.0482 10.53L8.54278 10.53C7.77856 10.5281 7.04526 10.8317 6.50608 11.3733L4.47028 13.41L1.88818 13.41C1.09289 13.41 0.448181 14.0547 0.448181 14.85L0.448181 18.45C0.448181 19.2453 1.09289 19.89 1.88818 19.89L11.2482 19.89C11.307 19.89 11.3657 19.8827 11.4228 19.8684L17.1828 18.4284C17.2195 18.4196 17.2553 18.4076 17.2899 18.3924L20.7882 16.9038L20.8278 16.8858C21.5113 16.5442 21.9704 15.8744 22.0423 15.1137C22.1142 14.353 21.7888 13.609 21.1815 13.1454H21.1779ZM1.88818 14.85H4.04818V18.45H1.88818L1.88818 14.85ZM20.1969 15.5889L16.7769 17.0451L11.1582 18.45H5.48818L5.48818 14.4279L7.52488 12.3921C7.794 12.1208 8.16066 11.9688 8.54278 11.97L13.0482 11.97C13.6446 11.97 14.1282 12.4535 14.1282 13.05C14.1282 13.6464 13.6446 14.13 13.0482 14.13L10.5282 14.13C10.1305 14.13 9.80818 14.4523 9.80818 14.85C9.80818 15.2476 10.1305 15.57 10.5282 15.57L13.4082 15.57C13.4624 15.5698 13.5164 15.5638 13.5693 15.552L19.5993 14.1651L19.6272 14.1579C20.0084 14.052 20.4081 14.2507 20.5538 14.6186C20.6995 14.9864 20.5444 15.4049 20.1942 15.5889H20.1969ZM15.2082 9.08998C15.3861 9.09018 15.5637 9.07573 15.7392 9.04678C16.2887 10.679 18.0191 11.5961 19.6783 11.1344C21.3375 10.6728 22.3456 8.99381 21.9732 7.31234C21.6007 5.63087 19.9779 4.5346 18.279 4.81678C17.7515 3.24912 16.128 2.33043 14.5125 2.68553C12.8971 3.04063 11.8085 4.55551 11.9871 6.19985C12.1657 7.84418 13.5542 9.09 15.2082 9.08998ZM20.6082 8.00998C20.6082 9.00409 19.8023 9.80998 18.8082 9.80998C17.8141 9.80998 17.0082 9.00409 17.0082 8.00998C17.0082 7.01586 17.8141 6.20998 18.8082 6.20998C19.8023 6.20998 20.6082 7.01586 20.6082 8.00998ZM15.2082 4.04998C16.0151 4.05038 16.7232 4.58778 16.9407 5.36488C16.195 5.88952 15.705 6.70405 15.5907 7.60858C15.465 7.63572 15.3368 7.6496 15.2082 7.64998C14.2141 7.64998 13.4082 6.84409 13.4082 5.84998C13.4082 4.85586 14.2141 4.04998 15.2082 4.04998Z" fill="#6355D8"/>
</svg>
