<svg width="20" height="20" viewBox="0 0 20 20" fill="none" xmlns="http://www.w3.org/2000/svg">
    <path d="M17.4701 2.53L2.53012 2.53C1.61712 2.53 0.870117 3.277 0.870117 4.19L0.870117 10.83H2.53012L2.53012 4.19L17.4701 4.19L17.4701 17.47C18.3831 17.47 19.1301 16.723 19.1301 15.81L19.1301 4.19C19.1301 3.277 18.3831 2.53 17.4701 2.53Z" fill="#6355D8"/>
    <path d="M10.8199 8.32999C10.8199 6.49569 9.33423 5.00999 7.49993 5.00999C5.66563 5.00999 4.17993 6.49569 4.17993 8.32999C4.17993 10.1643 5.66563 11.65 7.49993 11.65C9.33423 11.65 10.8199 10.1643 10.8199 8.32999ZM5.83993 8.32999C5.83993 7.41699 6.58693 6.66999 7.49993 6.66999C8.41293 6.66999 9.15993 7.41699 9.15993 8.32999C9.15993 9.24299 8.41293 9.98999 7.49993 9.98999C6.58693 9.98999 5.83993 9.24299 5.83993 8.32999Z" fill="#6355D8"/>
    <path d="M12.8038 13.8098C11.4094 13.096 9.60001 12.515 7.50011 12.515C5.40021 12.515 3.59081 13.096 2.19641 13.8098C1.36641 14.2331 0.860107 15.088 0.860107 16.0176L0.860107 18.325L14.1401 18.325L14.1401 16.0176C14.1401 15.088 13.6338 14.2331 12.8038 13.8098ZM12.4801 16.665L2.52011 16.665C2.52011 16.0674 2.43711 15.5528 2.95171 15.2872C3.93941 14.7809 5.53301 14.175 7.50011 14.175C9.46721 14.175 11.0608 14.7809 12.0485 15.2872C12.5714 15.5528 12.4801 16.0757 12.4801 16.665Z" fill="#6355D8"/>
</svg>
