<svg width="20" height="20" viewBox="0 0 20 20" fill="none" xmlns="http://www.w3.org/2000/svg">
    <path d="M9.21502 10.0026C10.9609 10.0026 12.375 8.58852 12.375 6.84262C12.375 5.09672 10.9609 3.68262 9.21502 3.68262C7.46912 3.68262 6.05502 5.09672 6.05502 6.84262C6.05502 8.58852 7.46912 10.0026 9.21502 10.0026ZM9.21502 5.26262C10.084 5.26262 10.795 5.97362 10.795 6.84262C10.795 7.71162 10.084 8.42262 9.21502 8.42262C8.34602 8.42262 7.63502 7.71162 7.63502 6.84262C7.63502 5.97362 8.34602 5.26262 9.21502 5.26262ZM4.47502 14.7426C4.63302 14.2449 6.50532 13.4154 8.39342 13.21L10.005 11.63C9.74272 11.6001 9.47901 11.5843 9.21502 11.5826C7.10572 11.5826 2.89502 12.6412 2.89502 14.7426L2.89502 16.3226L10.005 16.3226L8.42502 14.7426L4.47502 14.7426ZM16.799 10.3976L12.7463 14.4819L11.111 12.8387L10.005 13.9526L12.7463 16.7176L17.905 11.5115L16.799 10.3976Z" fill="#171A1F"/>
</svg>
