<svg width="24" height="24" viewBox="0 0 24 24" fill="none" xmlns="http://www.w3.org/2000/svg">
    <path d="M12 14.58C13.4249 14.58 14.58 13.4249 14.58 12C14.58 10.5751 13.4249 9.41998 12 9.41998C10.5751 9.41998 9.42004 10.5751 9.42004 12C9.42004 13.4249 10.5751 14.58 12 14.58Z" stroke="#323743" stroke-width="2.064" stroke-miterlimit="10" stroke-linecap="square"/>
    <path d="M18.88 12C18.879 11.5045 18.8248 11.0107 18.7183 10.5268L21.0524 8.7595L19.3324 5.78046L16.6294 6.92082C15.8974 6.24976 15.0286 5.74539 14.0829 5.44248L13.72 2.53998L10.28 2.53998L9.91707 5.44248C8.97137 5.74539 8.10259 6.24976 7.37061 6.92082L4.66763 5.78046L2.94763 8.7595L5.28167 10.5268C5.06615 11.4971 5.06615 12.5029 5.28167 13.4732L2.94763 15.2405L4.66763 18.2195L7.37061 17.0791C8.10259 17.7502 8.97137 18.2546 9.91707 18.5575L10.28 21.46H13.72L14.0829 18.5575C15.0286 18.2546 15.8974 17.7502 16.6294 17.0791L19.3324 18.2195L21.0524 15.2405L18.7183 13.4732C18.8248 12.9893 18.879 12.4954 18.88 12Z" stroke="#323743" stroke-width="2.064" stroke-miterlimit="10" stroke-linecap="round"/>
</svg>
