<svg width="24" height="24" viewBox="0 0 24 24" fill="none" xmlns="http://www.w3.org/2000/svg">
    <path d="M19.7095 7.89061L14.6695 2.85061C14.5343 2.71562 14.3511 2.63986 14.1601 2.64001L5.52008 2.64001C4.72479 2.64001 4.08008 3.28472 4.08008 4.08001L4.08008 19.92C4.08008 20.7153 4.72479 21.36 5.52008 21.36L18.4801 21.36C19.2754 21.36 19.9201 20.7153 19.9201 19.92L19.9201 8.40001C19.9202 8.209 19.8445 8.02576 19.7095 7.89061ZM14.8801 5.09791L17.4622 7.68001L14.8801 7.68001L14.8801 5.09791ZM18.4801 19.92L10.5601 19.92V18.48H11.2801C11.6777 18.48 12.0001 18.1577 12.0001 17.76C12.0001 17.3624 11.6777 17.04 11.2801 17.04H10.5601V15.6H11.2801C11.6777 15.6 12.0001 15.2777 12.0001 14.88C12.0001 14.4824 11.6777 14.16 11.2801 14.16H10.5601V12.72H11.2801C11.6777 12.72 12.0001 12.3977 12.0001 12C12.0001 11.6024 11.6777 11.28 11.2801 11.28H10.5601V10.56C10.5601 10.1624 10.2377 9.84001 9.84008 9.84001C9.44243 9.84001 9.12008 10.1624 9.12008 10.56V11.28H8.40008C8.00243 11.28 7.68008 11.6024 7.68008 12C7.68008 12.3977 8.00243 12.72 8.40008 12.72H9.12008V14.16H8.40008C8.00243 14.16 7.68008 14.4824 7.68008 14.88C7.68008 15.2777 8.00243 15.6 8.40008 15.6H9.12008V17.04H8.40008C8.00243 17.04 7.68008 17.3624 7.68008 17.76C7.68008 18.1577 8.00243 18.48 8.40008 18.48H9.12008V19.92H5.52008L5.52008 4.08001L13.4401 4.08001L13.4401 8.40001C13.4401 8.79766 13.7624 9.12001 14.1601 9.12001H18.4801L18.4801 19.92Z" fill="#6F7787"/>
</svg>
