<svg width="20" height="20" viewBox="0 0 20 20" fill="none" xmlns="http://www.w3.org/2000/svg">
    <path d="M12 2.5L12 6.5L16 6.5" stroke="#565E6C" stroke-width="1.2" stroke-miterlimit="10"/>
    <path d="M16 8.5V6.5L12 2.5L4 2.5L4 8.5" stroke="#565E6C" stroke-width="1.2" stroke-miterlimit="10" stroke-linecap="square"/>
    <path d="M4 15.5L4 17.5L16 17.5V15.5" stroke="#565E6C" stroke-width="1.2" stroke-miterlimit="10" stroke-linecap="square"/>
    <path d="M8.34995 11.9945C8.34995 12.4945 8.19995 12.8445 7.94995 13.0945C7.69995 13.3445 7.34995 13.4945 6.84995 13.4945H5.94995L5.94995 10.6445H6.94995C7.39995 10.6445 7.74995 10.7445 7.99995 10.9945C8.24995 11.2445 8.34995 11.5445 8.34995 11.9945ZM7.54995 12.0445C7.54995 11.7945 7.49995 11.5945 7.39995 11.4445C7.29995 11.2945 7.14995 11.2445 6.94995 11.2445H6.69995L6.69995 12.8445H6.84995C7.09995 12.8445 7.24995 12.7945 7.34995 12.6445C7.44995 12.4945 7.54995 12.2945 7.54995 12.0445Z" fill="#565E6C"/>
    <path d="M11.55 12.0498C11.55 12.5498 11.45 12.8998 11.2 13.1498C10.95 13.3998 10.6 13.5498 10.15 13.5498C9.7 13.5498 9.35 13.3998 9.1 13.1498C8.85 12.8998 8.75 12.5498 8.75 12.0498C8.75 11.5498 8.85 11.1998 9.1 10.9498C9.35 10.6998 9.7 10.5498 10.15 10.5498C10.6 10.5498 10.95 10.6498 11.2 10.8998C11.45 11.1498 11.55 11.5998 11.55 12.0498ZM9.6 12.0498C9.6 12.5998 9.8 12.8998 10.2 12.8998C10.4 12.8998 10.55 12.8498 10.65 12.6998C10.75 12.5498 10.8 12.3498 10.8 12.0498C10.8 11.7498 10.75 11.5498 10.65 11.3998C10.55 11.2498 10.4 11.1998 10.2 11.1998C9.8 11.2498 9.6 11.4998 9.6 12.0498Z" fill="#565E6C"/>
    <path d="M13.35 11.25C13.15 11.25 13 11.35 12.9 11.5C12.8 11.65 12.75 11.85 12.75 12.1C12.75 12.65 12.95 12.9 13.4 12.9C13.55 12.9 13.65 12.9 13.75 12.85C13.85 12.8 14 12.75 14.1 12.7V13.35C13.85 13.45 13.6 13.5 13.3 13.5C12.85 13.5 12.55 13.4 12.3 13.1C12.05 12.8 11.95 12.5 11.95 12C11.95 11.7 12 11.45 12.1 11.2C12.2 10.95 12.35 10.8 12.6 10.7C12.85 10.6 13.05 10.5 13.35 10.5C13.65 10.5 13.95 10.55 14.25 10.7L14 11.4C13.9 11.35 13.8 11.3 13.7 11.3C13.6 11.3 13.45 11.25 13.35 11.25Z" fill="#565E6C"/>
    <path d="M17.5 8.5L2.5 8.5L2.5 15.5L17.5 15.5V8.5Z" stroke="#565E6C" stroke-width="1.2" stroke-miterlimit="10" stroke-linecap="square"/>
</svg>
