<svg width="32" height="32" viewBox="0 0 32 32" fill="none" xmlns="http://www.w3.org/2000/svg">
    <rect x="0.5" y="0.5" width="31" height="31" rx="5.5" fill="white"/>
    <rect x="0.5" y="0.5" width="31" height="31" rx="5.5" stroke="#636AE8"/>
    <path d="M8.1001 21.5296L8.1001 10.4696C8.1001 9.84105 8.34997 9.23841 8.79444 8.79395C9.2389 8.34949 9.84153 8.09961 10.4701 8.09961L16.0001 8.09961C16.4364 8.09961 16.7901 8.45331 16.7901 8.88961C16.7901 9.32591 16.4364 9.67961 16.0001 9.67961L10.4701 9.67961C10.2606 9.67961 10.0597 9.7629 9.91154 9.91106C9.76339 10.0592 9.6801 10.2601 9.6801 10.4696L9.6801 21.5296C9.6801 21.7391 9.76339 21.94 9.91154 22.0881C10.0597 22.2363 10.2606 22.3196 10.4701 22.3196L21.5301 22.3196C21.7396 22.3196 21.9405 22.2363 22.0886 22.0881C22.2368 21.94 22.3201 21.7391 22.3201 21.5296L22.3201 15.9996C22.3201 15.5633 22.6738 15.2096 23.1101 15.2096C23.5464 15.2096 23.9001 15.5633 23.9001 15.9996L23.9001 21.5296C23.9001 22.1582 23.6502 22.7608 23.2058 23.2053C22.7613 23.6497 22.1587 23.8996 21.5301 23.8996L10.4701 23.8996C9.84153 23.8996 9.2389 23.6497 8.79444 23.2053C8.34997 22.7608 8.1001 22.1581 8.1001 21.5296Z" fill="#636AE8"/>
    <path d="M23.1032 9.69098C23.0831 9.48812 22.9932 9.29714 22.8479 9.15172C22.6817 8.98567 22.4563 8.8925 22.2214 8.8925C22.0157 8.89252 21.8174 8.96386 21.6598 9.09309L21.5949 9.15172L14.4749 16.2733C14.3811 16.3669 14.3117 16.4826 14.2743 16.6096L13.813 18.1858L15.3906 17.7252L15.484 17.6913C15.5445 17.665 15.6016 17.6314 15.6537 17.591L15.7278 17.5254L22.8479 10.4046L22.9065 10.3398C23.0357 10.1822 23.1071 9.9838 23.1071 9.77817L23.1032 9.69098ZM24.684 9.90083C24.6557 10.4696 24.4313 11.0109 24.049 11.433L23.9649 11.5217L16.8449 18.6433C16.5636 18.9244 16.2153 19.1297 15.8335 19.2412L15.8342 19.2419L13.5646 19.9054C13.3607 19.9649 13.1438 19.9682 12.9381 19.9155C12.7323 19.8628 12.5444 19.7556 12.3942 19.6053C12.2441 19.4552 12.1368 19.2678 12.0841 19.0622C12.0314 18.8564 12.0346 18.6397 12.0941 18.4357L12.7584 16.1661V16.1653L12.8046 16.0233C12.9061 15.744 13.0592 15.4861 13.256 15.2634L13.3578 15.1554L20.4779 8.03461L20.5666 7.95052C21.0188 7.54096 21.6083 7.31252 22.2214 7.3125C22.8753 7.3125 23.5025 7.57225 23.9649 8.03461C24.4273 8.497 24.687 9.12425 24.6871 9.77817L24.684 9.90083Z" fill="#636AE8"/>
</svg>
