<svg width="20" height="20" viewBox="0 0 20 20" fill="none" xmlns="http://www.w3.org/2000/svg">
    <path d="M7.50999 3.36012C3.84139 3.36012 0.869995 6.33152 0.869995 10.0001C0.869995 13.6687 3.84139 16.6401 7.50999 16.6401C11.1786 16.6401 14.15 13.6687 14.15 10.0001C14.15 6.33152 11.1786 3.36012 7.50999 3.36012ZM7.50999 14.9801C4.7627 14.9801 2.53 12.7474 2.53 10.0001C2.53 7.25282 4.7627 5.02012 7.50999 5.02012C10.2573 5.02012 12.49 7.25282 12.49 10.0001C12.49 12.7474 10.2573 14.9801 7.50999 14.9801ZM9.99999 8.75512L8.33999 8.75512L8.33999 12.9051H6.68L6.68 8.75512L5.02 8.75512V7.51012L9.99999 7.51012V8.75512ZM16.8475 3.15262L19.13 4.19012L16.8475 5.22762L15.81 7.51012L14.7725 5.22762L12.49 4.19012L14.7725 3.15262L15.81 0.870117L16.8475 3.15262ZM16.8475 14.7726L19.13 15.8101L16.8475 16.8476L15.81 19.1301L14.7725 16.8476L12.49 15.8101L14.7725 14.7726L15.81 12.4901L16.8475 14.7726Z" fill="#565E6C"/>
</svg>
