<svg width="20" height="21" viewBox="0 0 20 21" fill="none" xmlns="http://www.w3.org/2000/svg">
    <path d="M4.31945 17.3387H3.60945C2.82521 17.3387 2.18945 16.7029 2.18945 15.9187L2.18945 3.13867L7.86945 3.13867L9.99945 5.97867L17.8095 5.97867L17.8095 15.9187C17.8095 16.7029 17.1737 17.3387 16.3895 17.3387H15.6795" stroke="#565E6C" stroke-width="1.704" stroke-miterlimit="10" stroke-linecap="round"/>
    <path d="M7.16016 17.3789H12.8402" stroke="#565E6C" stroke-width="1.704" stroke-miterlimit="10" stroke-linecap="square"/>
    <path d="M9.99906 13.8087C10.3912 13.8087 10.7091 13.4908 10.7091 13.0987C10.7091 12.7065 10.3912 12.3887 9.99906 12.3887C9.60694 12.3887 9.28906 12.7065 9.28906 13.0987C9.28906 13.4908 9.60694 13.8087 9.99906 13.8087Z" fill="#565E6C"/>
    <path d="M8.57922 17.3589L6.44922 13.0989L9.99922 8.83887L13.5492 13.0989L11.4192 17.3589" stroke="#565E6C" stroke-width="1.704" stroke-miterlimit="10"/>
</svg>
