<svg width="20" height="20" viewBox="0 0 20 20" fill="none" xmlns="http://www.w3.org/2000/svg">
    <path d="M13.55 3.61035L6.44995 3.61035L6.44995 16.3904H13.55L13.55 3.61035Z" stroke="#565E6C" stroke-width="1.704" stroke-miterlimit="10"/>
    <path d="M2.8599 6.42C3.25202 6.42 3.5699 6.10212 3.5699 5.71C3.5699 5.31788 3.25202 5 2.8599 5C2.46778 5 2.1499 5.31788 2.1499 5.71C2.1499 6.10212 2.46778 6.42 2.8599 6.42Z" fill="#565E6C"/>
    <path d="M2.8599 10.71C3.25202 10.71 3.5699 10.3922 3.5699 10C3.5699 9.60792 3.25202 9.29004 2.8599 9.29004C2.46778 9.29004 2.1499 9.60792 2.1499 10C2.1499 10.3922 2.46778 10.71 2.8599 10.71Z" fill="#565E6C"/>
    <path d="M2.8599 15.0001C3.25202 15.0001 3.5699 14.6822 3.5699 14.2901C3.5699 13.898 3.25202 13.5801 2.8599 13.5801C2.46778 13.5801 2.1499 13.898 2.1499 14.2901C2.1499 14.6822 2.46778 15.0001 2.8599 15.0001Z" fill="#565E6C"/>
    <path d="M17.1399 6.42C17.5321 6.42 17.8499 6.10212 17.8499 5.71C17.8499 5.31788 17.5321 5 17.1399 5C16.7478 5 16.4299 5.31788 16.4299 5.71C16.4299 6.10212 16.7478 6.42 17.1399 6.42Z" fill="#565E6C"/>
    <path d="M17.1399 10.71C17.5321 10.71 17.8499 10.3922 17.8499 10C17.8499 9.60792 17.5321 9.29004 17.1399 9.29004C16.7478 9.29004 16.4299 9.60792 16.4299 10C16.4299 10.3922 16.7478 10.71 17.1399 10.71Z" fill="#565E6C"/>
    <path d="M17.1399 15.0001C17.5321 15.0001 17.8499 14.6822 17.8499 14.2901C17.8499 13.898 17.5321 13.5801 17.1399 13.5801C16.7478 13.5801 16.4299 13.898 16.4299 14.2901C16.4299 14.6822 16.7478 15.0001 17.1399 15.0001Z" fill="#565E6C"/>
    <path d="M2.8599 6.42C3.25202 6.42 3.5699 6.10212 3.5699 5.71C3.5699 5.31788 3.25202 5 2.8599 5C2.46778 5 2.1499 5.31788 2.1499 5.71C2.1499 6.10212 2.46778 6.42 2.8599 6.42Z" stroke="#565E6C" stroke-width="1.704" stroke-miterlimit="10"/>
    <path d="M2.8599 10.71C3.25202 10.71 3.5699 10.3922 3.5699 10C3.5699 9.60792 3.25202 9.29004 2.8599 9.29004C2.46778 9.29004 2.1499 9.60792 2.1499 10C2.1499 10.3922 2.46778 10.71 2.8599 10.71Z" stroke="#565E6C" stroke-width="1.704" stroke-miterlimit="10"/>
    <path d="M2.8599 15.0001C3.25202 15.0001 3.5699 14.6822 3.5699 14.2901C3.5699 13.898 3.25202 13.5801 2.8599 13.5801C2.46778 13.5801 2.1499 13.898 2.1499 14.2901C2.1499 14.6822 2.46778 15.0001 2.8599 15.0001Z" stroke="#565E6C" stroke-width="1.704" stroke-miterlimit="10"/>
    <path d="M17.1399 6.42C17.5321 6.42 17.8499 6.10212 17.8499 5.71C17.8499 5.31788 17.5321 5 17.1399 5C16.7478 5 16.4299 5.31788 16.4299 5.71C16.4299 6.10212 16.7478 6.42 17.1399 6.42Z" stroke="#565E6C" stroke-width="1.704" stroke-miterlimit="10"/>
    <path d="M17.1399 10.71C17.5321 10.71 17.8499 10.3922 17.8499 10C17.8499 9.60792 17.5321 9.29004 17.1399 9.29004C16.7478 9.29004 16.4299 9.60792 16.4299 10C16.4299 10.3922 16.7478 10.71 17.1399 10.71Z" stroke="#565E6C" stroke-width="1.704" stroke-miterlimit="10"/>
    <path d="M17.1399 15.0001C17.5321 15.0001 17.8499 14.6822 17.8499 14.2901C17.8499 13.898 17.5321 13.5801 17.1399 13.5801C16.7478 13.5801 16.4299 13.898 16.4299 14.2901C16.4299 14.6822 16.7478 15.0001 17.1399 15.0001Z" stroke="#565E6C" stroke-width="1.704" stroke-miterlimit="10"/>
</svg>
