<svg width="20" height="21" viewBox="0 0 20 21" fill="none" xmlns="http://www.w3.org/2000/svg">
    <g clip-path="url(#clip0_74_655)">
        <path d="M5.82992 8.58301H4.16992L4.16992 14.393H5.82992L5.82992 8.58301Z" fill="#636AE8"/>
        <path d="M10.8299 8.58301H9.16992L9.16992 14.393H10.8299L10.8299 8.58301Z" fill="#636AE8"/>
        <path d="M18.2992 5.23301L9.99922 1.08301L1.69922 5.23301L1.69922 6.89301L18.2992 6.89301V5.23301ZM5.40932 5.23301L9.99922 2.94221L14.5891 5.23301L5.40932 5.23301Z" fill="#636AE8"/>
        <path d="M1.68359 16.0781L1.68359 17.7381L11.9756 17.7381C11.8013 17.2069 11.71 16.6508 11.6768 16.0781L1.68359 16.0781Z" fill="#636AE8"/>
        <path d="M15.8299 10.451V8.5752H14.1699V11.281L15.8299 10.451Z" fill="#636AE8"/>
        <path d="M16.6696 11.918L13.3496 13.578L13.3496 15.6945C13.3496 17.7861 14.7689 19.7449 16.6696 20.218C18.5703 19.7449 19.9896 17.7861 19.9896 15.6945V13.578L16.6696 11.918ZM16.072 17.728L14.3871 16.0431L15.2669 15.1633L16.072 15.9684L18.0723 13.993L18.9521 14.8728L16.072 17.728Z" fill="#636AE8"/>
    </g>
    <defs>
        <clipPath id="clip0_74_655">
            <rect width="20" height="20" fill="white" transform="translate(0 0.238281)"/>
        </clipPath>
    </defs>
</svg>
