<svg width="20" height="21" viewBox="0 0 20 21" fill="none" xmlns="http://www.w3.org/2000/svg">
    <path d="M9.16922 14.3886H10.8292V13.5586H11.6592C12.1157 13.5586 12.4892 13.1851 12.4892 12.7286V10.2386C12.4892 9.78213 12.1157 9.40863 11.6592 9.40863L9.16922 9.40863L9.16922 8.57863L12.4892 8.57863L12.4892 6.91863L10.8292 6.91863V6.08863H9.16922V6.91863H8.33922C7.88272 6.91863 7.50922 7.29213 7.50922 7.74863L7.50922 10.2386C7.50922 10.6951 7.88272 11.0686 8.33922 11.0686L10.8292 11.0686V11.8986H7.50922L7.50922 13.5586H9.16922V14.3886ZM16.6392 3.59863L3.35922 3.59863C2.43792 3.59863 1.70752 4.33733 1.70752 5.25863L1.69922 15.2186C1.69922 16.1399 2.43792 16.8786 3.35922 16.8786L16.6392 16.8786C17.5605 16.8786 18.2992 16.1399 18.2992 15.2186L18.2992 5.25863C18.2992 4.33733 17.5605 3.59863 16.6392 3.59863ZM16.6392 15.2186L3.35922 15.2186L3.35922 5.25863L16.6392 5.25863L16.6392 15.2186Z" fill="#565E6C"/>
</svg>
