<svg width="14" height="14" viewBox="0 0 14 14" fill="none" xmlns="http://www.w3.org/2000/svg">
    <path d="M6.03751 7.96226C5.58569 7.49264 5.18742 6.97429 4.85001 6.41676L5.90501 5.34626C6.0357 5.21355 6.07323 5.01502 6.00001 4.84376L4.90001 2.27976C4.81019 2.07081 4.5809 1.95914 4.36101 2.01726L2.34401 2.55076C2.13657 2.60454 1.99385 2.79456 2.00001 3.00876C2.12835 5.35465 3.10373 7.57423 4.74501 9.25526" stroke="#565E6C" stroke-width="1.2" stroke-miterlimit="10" stroke-linecap="round"/>
    <path d="M6 10.2891C7.47398 11.3104 9.2024 11.9029 10.993 12.0006C11.2075 12.0078 11.3981 11.8649 11.4515 11.6571L11.9845 9.63905C12.0429 9.41927 11.9314 9.18988 11.7225 9.10005L9.158 8.00055C8.98644 7.92638 8.78704 7.96377 8.654 8.09505L7.5835 9.15055C7.5835 9.15055 7.492 9.09755 7.345 9.00055" stroke="#565E6C" stroke-width="1.2" stroke-miterlimit="10" stroke-linecap="round"/>
    <path d="M2 12L12 2" stroke="#565E6C" stroke-width="1.2" stroke-miterlimit="10" stroke-linecap="square"/>
</svg>
