<svg width="14" height="14" viewBox="0 0 14 14" fill="none" xmlns="http://www.w3.org/2000/svg">
    <g clip-path="url(#clip0_50_2086)">
        <path d="M6.5 7L6.5 9C6.5 9.8285 7.843 10.5 9.5 10.5C11.157 10.5 12.5 9.8285 12.5 9V7" stroke="#565E6C" stroke-width="1.2" stroke-miterlimit="10" stroke-linecap="round"/>
        <path d="M6.5 9L6.5 11C6.5 11.8285 7.843 12.5 9.5 12.5C11.157 12.5 12.5 11.8285 12.5 11V9" stroke="#565E6C" stroke-width="1.2" stroke-miterlimit="10" stroke-linecap="round"/>
        <path d="M9.5 8.5C11.1569 8.5 12.5 7.82843 12.5 7C12.5 6.17157 11.1569 5.5 9.5 5.5C7.84315 5.5 6.5 6.17157 6.5 7C6.5 7.82843 7.84315 8.5 9.5 8.5Z" stroke="#565E6C" stroke-width="1.2" stroke-miterlimit="10" stroke-linecap="square"/>
        <path d="M5 3.5V5H3.5" stroke="#565E6C" stroke-width="1.2" stroke-miterlimit="10" stroke-linecap="square"/>
        <path d="M5 8.5C3.067 8.5 1.5 6.933 1.5 5C1.5 3.067 3.067 1.5 5 1.5C6.5855 1.5 7.925 2.5545 8.355 4.0005" stroke="#565E6C" stroke-width="1.2" stroke-miterlimit="10" stroke-linecap="round"/>
    </g>
    <defs>
        <clipPath id="clip0_50_2086">
            <rect width="14" height="14" fill="white"/>
        </clipPath>
    </defs>
</svg>
