<svg width="14" height="14" viewBox="0 0 14 14" fill="none" xmlns="http://www.w3.org/2000/svg">
    <path d="M12.196 7.43712C11.9595 10.1865 9.6187 12.2738 6.86026 12.1948C4.10181 12.1159 1.88418 9.89829 1.80527 7.13984C1.72635 4.3814 3.81356 2.04061 6.56298 1.80412C6.7839 1.78589 6.97776 1.9502 6.99598 2.17112C7.01421 2.39203 6.8499 2.58589 6.62898 2.60412C4.30194 2.80406 2.53524 4.78513 2.60196 7.1198C2.66867 9.45447 4.54563 11.3314 6.8803 11.3981C9.21496 11.4649 11.196 9.69816 11.396 7.37112C11.4078 7.22821 11.4949 7.10245 11.6246 7.0412C11.7542 6.97996 11.9067 6.99254 12.0246 7.07421C12.1424 7.15587 12.2078 7.29421 12.196 7.43712ZM6.59598 4.20412V7.00412C6.59598 7.22503 6.77507 7.40412 6.99598 7.40412L9.79598 7.40412C10.0169 7.40412 10.196 7.22503 10.196 7.00412C10.196 6.7832 10.0169 6.60412 9.79598 6.60412H7.39598V4.20412C7.39598 3.9832 7.2169 3.80412 6.99598 3.80412C6.77507 3.80412 6.59598 3.9832 6.59598 4.20412ZM8.59598 3.00412C8.92735 3.00412 9.19598 2.73549 9.19598 2.40412C9.19598 2.07274 8.92735 1.80412 8.59598 1.80412C8.26461 1.80412 7.99598 2.07274 7.99598 2.40412C7.99598 2.73549 8.26461 3.00412 8.59598 3.00412ZM10.396 4.20412C10.7274 4.20412 10.996 3.93549 10.996 3.60412C10.996 3.27274 10.7274 3.00412 10.396 3.00412C10.0646 3.00412 9.79598 3.27274 9.79598 3.60412C9.79598 3.93549 10.0646 4.20412 10.396 4.20412ZM11.596 6.00412C11.9274 6.00412 12.196 5.73549 12.196 5.40412C12.196 5.07274 11.9274 4.80412 11.596 4.80412C11.2646 4.80412 10.996 5.07274 10.996 5.40412C10.996 5.73549 11.2646 6.00412 11.596 6.00412Z" fill="#565E6C"/>
</svg>
