<svg width="14" height="14" viewBox="0 0 14 14" fill="none" xmlns="http://www.w3.org/2000/svg">
    <path d="M8.23348 2.47573C8.2609 2.3732 8.32794 2.28578 8.41984 2.2327C8.51174 2.17963 8.62097 2.16524 8.72348 2.19273C10.2334 2.58668 11.4125 3.76582 11.8065 5.27573C11.834 5.37823 11.8196 5.48746 11.7665 5.57936C11.7134 5.67126 11.626 5.73831 11.5235 5.76573C11.4897 5.7746 11.4549 5.77914 11.42 5.77923C11.2387 5.77922 11.0801 5.65736 11.0335 5.48223C10.7122 4.24962 9.74958 3.28703 8.51698 2.96573C8.41436 2.93841 8.32682 2.87142 8.27364 2.7795C8.22046 2.68759 8.20601 2.5783 8.23348 2.47573ZM8.11698 4.56573C8.80648 4.74973 9.24948 5.19273 9.43348 5.88223C9.48015 6.05736 9.63873 6.17922 9.81998 6.17923C9.85491 6.17914 9.88969 6.1746 9.92348 6.16573C10.026 6.13831 10.1134 6.07126 10.1665 5.97936C10.2196 5.88746 10.234 5.77823 10.2065 5.67573C9.95048 4.71773 9.28148 4.04873 8.32348 3.79273C8.11002 3.7357 7.89075 3.86252 7.83373 4.07598C7.7767 4.28944 7.90352 4.5087 8.11698 4.56573ZM12.214 9.33323C12.0295 10.7348 10.8336 11.7818 9.41998 11.7792C5.44998 11.7792 2.21998 8.54923 2.21998 4.57923C2.21744 3.16559 3.26442 1.96966 4.66598 1.78523C5.01784 1.74226 5.35602 1.93598 5.49698 2.26123L6.55298 4.61873V4.62473C6.6597 4.87096 6.63585 5.1543 6.48948 5.37923C6.48048 5.39273 6.47098 5.40523 6.46098 5.41773L5.41998 6.65173C5.79448 7.41273 6.59048 8.20173 7.36148 8.57723L8.57848 7.54173C8.59043 7.53168 8.60295 7.52233 8.61598 7.51373C8.84076 7.3638 9.12604 7.33747 9.37448 7.44373L9.38098 7.44673L11.7365 8.50223C12.0623 8.64268 12.2567 8.98099 12.214 9.33323ZM11.42 9.23323C11.42 9.23323 11.4165 9.23323 11.4145 9.23323L9.06448 8.18073L7.84698 9.21623C7.83516 9.22623 7.82281 9.23558 7.80998 9.24423C7.57579 9.40046 7.27672 9.42211 7.02248 9.30123C6.08598 8.84873 5.15248 7.92223 4.69948 6.99573C4.57747 6.74337 4.59644 6.44557 4.74948 6.21073C4.75796 6.19717 4.76749 6.1843 4.77798 6.17223L5.81998 4.93673L4.76998 2.58673C4.76978 2.58473 4.76978 2.58272 4.76998 2.58073C3.76684 2.71158 3.01726 3.56759 3.01998 4.57923C3.02383 8.11225 5.88695 10.9754 9.41998 10.9792C10.4309 10.9827 11.2872 10.2349 11.42 9.23273V9.23323Z" fill="#565E6C"/>
</svg>
