<svg width="14" height="14" viewBox="0 0 14 14" fill="none" xmlns="http://www.w3.org/2000/svg">
    <path opacity="0.4" d="M3.5 12.5C3.5 12.5 5 8.5 7 8.5C9 8.5 10.5 12.5 10.5 12.5L3.5 12.5Z" fill="#565E6C"/>
    <path d="M2.5 1.5L11.5 1.5" stroke="#565E6C" stroke-width="1.2" stroke-miterlimit="10" stroke-linecap="square"/>
    <path d="M2.5 12.5L11.5 12.5" stroke="#565E6C" stroke-width="1.2" stroke-miterlimit="10" stroke-linecap="square"/>
    <path d="M3.5 12.5L3.5 10C3.5 8.5 5.5 7 5.5 7C5.5 7 3.5 5.5 3.5 4L3.5 1.5" stroke="#565E6C" stroke-width="1.2" stroke-miterlimit="10" stroke-linecap="round"/>
    <path d="M10.5 1.5V4C10.5 5.5 8.5 7 8.5 7C8.5 7 10.5 8.5 10.5 10L10.5 12.5" stroke="#565E6C" stroke-width="1.2" stroke-miterlimit="10" stroke-linecap="round"/>
</svg>
